<svg id="Group_3" data-name="Group 3" xmlns="http://www.w3.org/2000/svg" viewBox="0 0 581.792 296.644">
  <defs>
    <style>
      .cls-1 {
        fill: #e11a2c;
      }

      .cls-2 {
        fill: #fff;
      }
    </style>
  </defs>
  <path id="Path_1" data-name="Path 1" class="cls-1" d="M148.319,0A148.322,148.322,0,1,0,296.644,148.322,148.323,148.323,0,0,0,148.319,0Z"/>
  <path id="Path_2" data-name="Path 2" class="cls-2" d="M104.793,89.453H99.842c-9.386,0-14.508,5.3-14.508,15.875v51.041c0,13.139-4.44,17.752-14.853,17.752-8.191,0-14.851-3.586-20.139-10.073-.513-.682-11.263,4.435-11.263,17.07,0,13.657,12.8,22.018,36.526,22.018,28.847,0,44.037-14.507,44.037-46.258V105.327C119.642,94.749,114.525,89.453,104.793,89.453ZM149.48,115.23h-3.414c-8.364,0-14.68,3.925-14.68,15.876v54.62c0,12.119,6.149,15.876,15.023,15.876h3.414c8.363,0,14.335-4.1,14.335-15.876v-54.62C164.159,118.818,158.36,115.23,149.48,115.23Zm-1.877-39.6c-10.582,0-17.238,5.973-17.238,15.361,0,9.561,6.827,15.53,17.749,15.53,10.584,0,17.244-5.97,17.244-15.53S158.531,75.633,147.6,75.633Zm72.135,38.743c-28,0-46.6,17.755-46.6,44.208,0,27.142,17.922,44.552,46.087,44.552,27.993,0,46.429-17.41,46.429-44.381C265.652,132.131,247.389,114.376,219.738,114.376Zm-.343,63.668c-10.927,0-18.436-8.019-18.436-19.459,0-11.263,7.681-19.284,18.436-19.284s18.433,8.021,18.433,19.455C237.828,169.85,229.978,178.044,219.4,178.044Z"/>
  <g id="Group_2" data-name="Group 2">
    <g id="Group_1" data-name="Group 1">
      <path id="Path_3" data-name="Path 3" class="cls-1" d="M359.231,98.6a18.064,18.064,0,0,1,7.355,7.861,27.222,27.222,0,0,1,2.575,12.305,28.522,28.522,0,0,1-2.541,12.541,18.239,18.239,0,0,1-7.291,8.027,21.88,21.88,0,0,1-11.234,2.775H327.96V95.9H348.1A22.213,22.213,0,0,1,359.231,98.6Zm-6.188,33.175a9.963,9.963,0,0,0,4.114-4.482,17.391,17.391,0,0,0,1.505-7.725q0-7.692-3.344-11.236t-9.832-3.547h-7.025v28.427h8.7A11.973,11.973,0,0,0,353.043,131.779Z"/>
      <path id="Path_4" data-name="Path 4" class="cls-1" d="M387.822,95.9v46.218h-10.5V95.9Z"/>
      <path id="Path_5" data-name="Path 5" class="cls-1" d="M427.988,96.7a17.754,17.754,0,0,1,7.058,5.384,15.625,15.625,0,0,1,3.21,8.262H428.223a8.385,8.385,0,0,0-3.378-4.986,10.765,10.765,0,0,0-6.186-1.7,11.348,11.348,0,0,0-6.889,2.007,11.675,11.675,0,0,0-4.047,5.45,24.4,24.4,0,0,0-.034,15.652,11.8,11.8,0,0,0,4.047,5.518,13.265,13.265,0,0,0,14.549-.2,9.731,9.731,0,0,0,3.21-6.825h-9.9V117.5h19.331v4.682q0,7.759-3.111,12.441a17.312,17.312,0,0,1-7.726,6.623,24.812,24.812,0,0,1-9.7,1.936,21.868,21.868,0,0,1-11.672-3.142,21.572,21.572,0,0,1-7.959-8.6,25.983,25.983,0,0,1-2.844-12.208,27.844,27.844,0,0,1,2.742-12.5A20.9,20.9,0,0,1,406.554,98a22.46,22.46,0,0,1,12.04-3.178A23.384,23.384,0,0,1,427.988,96.7Z"/>
      <path id="Path_6" data-name="Path 6" class="cls-1" d="M457.651,95.9v46.218h-10.5V95.9Z"/>
      <path id="Path_7" data-name="Path 7" class="cls-1" d="M502.2,95.9v8.894H488.42v37.324h-10.5V104.79H464.14V95.9Z"/>
      <path id="Path_8" data-name="Path 8" class="cls-1" d="M526.545,95.9,543.8,142.114H532.9l-3.41-9.9H512.431l-3.478,9.9H498.317L515.842,95.9h10.7Zm-5.485,11.77-5.885,16.721h11.7l-5.684-16.721Z"/>
      <path id="Path_9" data-name="Path 9" class="cls-1" d="M559.451,95.9v37.322h22.341v8.9H548.95V95.9Z"/>
      <path id="Path_10" data-name="Path 10" class="cls-1" d="M338.46,155.6v37.32H360.8v8.9H327.96V155.6h10.5Z"/>
      <path id="Path_11" data-name="Path 11" class="cls-1" d="M378.257,155.6v46.216h-10.5V155.6Z"/>
      <path id="Path_12" data-name="Path 12" class="cls-1" d="M421.066,155.6V164.5H398.792v10.167h19.264v8.226H398.792v18.928h-10.5V155.6h32.776Z"/>
      <path id="Path_13" data-name="Path 13" class="cls-1" d="M462.935,155.6V164.5H438.587v9.5h22.342v8.16H438.587v10.768H463.47v8.9H428.087V155.6Z"/>
    </g>
  </g>
</svg>
